<svg width="63" height="82" viewBox="0 0 63 82" fill="none" xmlns="http://www.w3.org/2000/svg">
<path d="M1 1H11M1.5 1.5L1 37.5C3 49 11 55.2 20.5 55H44.3222M10.5 1.5V35.5C11 45 17.0377 46.1956 22 47H39.5M39.5 47H40M39.5 47C42.2961 48.2008 42.4983 50.2879 44.3222 55M44.3222 55H44.7139M44.3222 55C44.3478 55.0661 44.3737 55.1328 44.4 55.2M62.0058 80.5386L52.0066 80.6615L52.0989 47.5C51.945 43.4602 45.0098 39.7705 41.5 39.5H24.5C21.6512 38.4219 20.3532 34.4126 18.4022 30L41.5 30C51.0952 30.478 57.745 37.3383 61.5002 47.5V80.0877M1.5 55V55.3567M1.5 55.3567V80.8904M1.5 55.3567C1.43754 55.2395 1.37499 55.1206 1.31235 55M1.5 55.3567C4.52902 61.0418 7.36353 62.8047 12 63M1.5 80.8904V81.3904M1.5 80.8904H1M1.5 80.8904H11M11.5 63.3904V81.3904M61.347 31.4353L61.005 1.49863M61.005 1.49863L60.9993 1.00572M61.005 1.49863L61.5 1.5M61.005 1.49863L51.0093 1.47093M51.4336 23L51.4241 22.5221M51.4241 22.5221L51.0093 1.47093M51.4241 22.5221C55.8938 22.8204 58.456 25.1507 61.5399 31.8902M51.4241 22.5221C51.2846 22.5128 51.1433 22.5054 51 22.5M51.0093 1.47093L51 1" stroke="black"/>
</svg>
